<svg width="64" height="54" viewBox="0 0 64 54" fill="none" xmlns="http://www.w3.org/2000/svg">
<g clip-path="url(#clip0_196_1018)">
<path d="M36.6643 17.7663C37.4211 17.0742 38.1661 16.4028 38.9018 15.7223C40.065 14.6449 41.4196 14.1004 43.0335 14.1097C47.6463 14.1327 52.2568 14.0866 56.8696 14.1304C59.7727 14.1581 61.8724 15.5654 63.2224 18.0731C63.7783 19.1043 63.9955 20.2348 63.9955 21.3998C63.9955 23.5661 64.0118 25.7346 63.9815 27.9009C63.9534 29.7557 62.4843 31.2853 60.6229 31.5068C59.9899 31.5829 59.3897 31.486 58.7474 31.313C58.7427 31.4376 58.7334 31.546 58.7334 31.6521C58.7334 35.5163 58.7287 39.3806 58.7334 43.2448C58.7357 44.8943 58.1378 46.2554 56.7995 47.2636C54.8353 48.7378 52.147 48.4886 50.4794 46.6891C50.428 46.6338 50.393 46.5669 50.3439 46.4977C50.0917 46.7376 49.8931 46.9475 49.6713 47.1275C47.0414 49.2591 43.4726 48.0849 42.2604 45.3234C41.9685 44.6567 41.8634 43.9623 41.8634 43.2517C41.861 37.2028 41.868 31.1515 41.8704 25.1025C41.8704 25.0126 41.8564 24.9203 41.8447 24.7795C41.3706 25.0079 40.9385 25.2179 40.5087 25.4278C40.0836 25.6354 39.6632 25.8546 39.2312 26.0484C37.4911 26.8351 35.8165 26.6713 34.275 25.5847C32.6167 24.4173 31.0028 23.1854 29.3703 21.9812C29.2231 21.8727 29.0573 21.7804 28.9288 21.6536C28.5925 21.3214 28.1931 21.2591 27.7353 21.2591C20.9084 21.2683 14.0838 21.2683 7.25684 21.2683C6.72433 21.2683 6.18714 21.2891 5.65696 21.2568C5.04737 21.2198 4.64798 20.8046 4.58726 20.2071C4.57558 20.0917 4.57324 19.9764 4.57324 19.8633C4.57324 13.7175 4.57324 7.57162 4.57324 1.42576C4.57324 0.962055 4.60828 0.507576 5.06605 0.242271C5.2529 0.133842 5.47011 0.0507895 5.68265 0.0254125C5.99796 -0.0138066 6.3226 0.00695645 6.64258 0.00695645C15.7024 0.00695645 24.7598 0.00695645 33.8196 0.00695645C34.2003 0.00695645 34.574 0.00695645 34.8799 0.297639C35.1369 0.544488 35.2817 0.807486 35.2793 1.17891C35.2676 6.2797 35.2676 11.3805 35.2747 16.4813C35.2747 16.6035 35.3494 16.7627 35.4428 16.8388C35.8305 17.1572 36.2393 17.4479 36.6667 17.7709L36.6643 17.7663ZM44.1733 33.3131C44.1733 33.3131 44.1873 33.3131 44.1943 33.3131C44.1943 36.6398 44.1943 39.9665 44.1943 43.2932C44.1943 43.4847 44.2036 43.6762 44.2247 43.8677C44.3718 45.3442 46.0698 46.3731 47.4735 45.8379C48.6249 45.3995 49.1808 44.4767 49.1714 43.1687C49.1481 40.0634 49.1504 36.9559 49.1528 33.8507C49.1528 33.5369 49.1808 33.2139 49.2579 32.9117C49.3723 32.4549 49.7764 32.185 50.2809 32.1643C50.7924 32.1435 51.1614 32.3534 51.3202 32.8264C51.416 33.1124 51.4627 33.4239 51.465 33.7261C51.479 35.6248 51.4743 37.5234 51.4767 39.4221C51.4767 40.7163 51.4697 42.0105 51.4767 43.3048C51.479 43.8031 51.5094 44.3014 51.7826 44.749C52.3409 45.6648 53.4106 46.1539 54.4779 45.9209C55.3281 45.734 56.2997 45.0512 56.4025 43.8008C56.4585 43.1064 56.4422 42.4027 56.4422 41.7037C56.4422 35.7586 56.4398 29.8157 56.4398 23.8706C56.4398 23.4876 56.4188 23.1 56.4749 22.724C56.601 21.8796 57.6286 21.5198 58.2966 22.0619C58.668 22.3618 58.731 22.7701 58.7334 23.2016C58.7357 24.6873 58.7334 26.173 58.7381 27.661C58.7381 27.8225 58.738 27.9909 58.7754 28.1455C58.9436 28.8814 59.6302 29.3543 60.3776 29.2597C61.2068 29.1559 61.6996 28.54 61.6926 27.6794C61.6762 25.5524 61.6272 23.4207 61.6926 21.296C61.772 18.6498 59.4644 16.3659 56.9093 16.4028C52.1914 16.4697 47.4711 16.4282 42.7532 16.4167C41.9428 16.4167 41.2398 16.6543 40.6535 17.1849C39.6609 18.0869 38.694 19.0167 37.7107 19.9279C37.0988 20.4931 36.5522 20.5139 35.8936 20.0133C34.5109 18.959 33.1236 17.9116 31.7479 16.8458C31.3532 16.5412 30.9398 16.3797 30.4353 16.419C29.6575 16.4813 29.0456 17.0488 28.9872 17.8147C28.9382 18.4653 29.1157 19.0143 29.6879 19.4181C30.5381 20.0225 31.3672 20.6546 32.208 21.2729C33.3665 22.1265 34.5086 23.0032 35.6974 23.8175C36.5476 24.4012 37.4981 24.3804 38.4114 23.949C39.766 23.3077 41.0973 22.6202 42.4426 21.9604C43.0709 21.6513 43.7155 21.8358 44.0331 22.4402C44.1382 22.641 44.1733 22.8993 44.1733 23.1323C44.1826 26.5259 44.1803 29.9195 44.1803 33.3155L44.1733 33.3131ZM32.9531 14.9286V2.33472H6.9065C6.9065 2.51697 6.9065 2.67846 6.9065 2.83996C6.90417 8.14145 6.8995 13.4406 6.89249 18.7421C6.89249 18.9521 6.94387 19.0213 7.16809 19.0213C13.4789 19.0143 19.7873 19.0143 26.0981 19.0143C26.3083 19.0143 26.5185 19.0143 26.7474 19.0143C26.4134 17.1341 26.9786 15.653 28.6019 14.6795C30.0639 13.8051 31.5237 13.9597 32.9531 14.931V14.9286Z" fill="black"/>
<path d="M5.70797 41.7431C2.82584 38.481 3.65031 34.4829 6.00692 32.2497C8.44295 29.9404 12.2546 29.7536 14.9266 31.846C16.4797 33.0618 17.3579 34.6652 17.5284 36.6146C17.6989 38.5617 17.0146 40.2412 15.716 41.7361C16.6572 41.9599 17.5074 42.2898 18.2805 42.795C19.0582 43.3026 19.6795 43.967 20.2587 44.7329C20.8216 43.9416 21.4592 43.2934 22.23 42.7858C23.0031 42.2783 23.8555 41.9484 24.7851 41.7407C23.4492 40.1535 22.6901 38.3841 22.989 36.3124C23.2343 34.6167 23.998 33.1587 25.3316 32.0329C27.8471 29.9081 31.4135 29.8274 33.9897 31.8299C34.994 32.6096 35.7321 33.5924 36.1828 34.7805C36.6336 35.9732 36.7784 37.1844 36.4981 38.444C36.2225 39.676 35.6596 40.7557 34.8048 41.7038C35.2556 41.8561 35.6737 41.9691 36.0707 42.1352C38.4063 43.1088 39.8357 44.8298 40.3519 47.2775C40.4336 47.6605 40.464 48.0573 40.4663 48.4495C40.471 49.926 40.471 51.4025 40.4406 52.879C40.4266 53.548 39.9501 53.9725 39.2752 53.9932C38.8688 54.0048 38.46 54.0048 38.0513 54.0048C26.002 54.0048 13.9526 54.0048 1.90328 54.0048C1.67906 54.0048 1.45718 54.0025 1.23296 53.9932C0.527614 53.9655 0.0114469 53.4534 0.00911126 52.7567C0.00444007 51.2802 -0.0212515 49.8037 0.0207892 48.3272C0.109542 45.2566 2.26296 42.622 5.27822 41.8423C5.41602 41.8076 5.55382 41.78 5.70329 41.7454L5.70797 41.7431ZM5.73132 51.6932C5.73132 50.8834 5.72665 50.1198 5.73132 49.3539C5.73366 49.0193 5.73132 48.6802 5.78037 48.3503C5.86212 47.8012 6.4974 47.3975 7.04626 47.5152C7.64184 47.6421 8.01553 48.1058 8.01553 48.7379C8.01787 49.7137 8.01553 50.6896 8.01553 51.6793H13.364C13.364 51.4694 13.364 51.2894 13.364 51.1072C13.3734 50.2651 13.357 49.4208 13.4061 48.5787C13.4458 47.9189 13.9456 47.4713 14.5272 47.4829C15.1858 47.4967 15.6716 47.9789 15.6926 48.6733C15.7137 49.4115 15.7043 50.1498 15.709 50.888C15.709 51.1441 15.709 51.4025 15.709 51.677H19.0466C19.0536 51.6101 19.0652 51.564 19.0652 51.5178C19.0652 50.4151 19.0863 49.3123 19.0629 48.2119C19.0325 46.7954 18.3622 45.6903 17.2622 44.8206C16.2625 44.0316 15.0854 43.8816 13.8592 43.8886C11.7829 43.9001 9.70417 43.8955 7.62783 43.907C7.1537 43.9093 6.6749 43.9232 6.20545 43.9762C4.37434 44.1862 2.56192 45.7549 2.35405 47.972C2.24428 49.1416 2.32369 50.3274 2.31201 51.5063C2.31201 51.6862 2.40543 51.707 2.55024 51.7047C2.97765 51.6955 3.40507 51.6908 3.83248 51.6908C4.45142 51.6885 5.07035 51.6908 5.73366 51.6908L5.73132 51.6932ZM24.7734 51.6932C24.7734 51.5663 24.7734 51.474 24.7734 51.3794C24.7734 50.4774 24.7618 49.5776 24.7804 48.6756C24.7945 47.9881 25.32 47.4713 25.9459 47.4852C26.5882 47.499 27.1044 48.0481 27.1067 48.7171C27.1067 49.5407 27.1067 50.3666 27.1067 51.1902C27.1067 51.3494 27.1067 51.5086 27.1067 51.6724H32.4646C32.4646 50.7265 32.4599 49.8083 32.4669 48.8878C32.4669 48.6894 32.4856 48.4841 32.537 48.2903C32.6818 47.7343 33.254 47.3975 33.8169 47.5175C34.3984 47.6421 34.7931 48.1127 34.7978 48.7079C34.8048 49.6192 34.8048 50.5281 34.7978 51.4394C34.7978 51.6332 34.8375 51.7093 35.0547 51.7047C35.9189 51.6885 36.7831 51.6932 37.6472 51.6885C37.8084 51.6885 37.9672 51.6885 38.126 51.6885C38.1401 51.6009 38.1541 51.564 38.1517 51.5271C38.1424 50.3389 38.1447 49.1508 38.1144 47.9627C38.0957 47.2153 37.8294 46.5347 37.3997 45.928C36.5098 44.6729 35.2976 43.937 33.7304 43.9186C31.0912 43.8886 28.4497 43.907 25.8104 43.9186C25.4648 43.9186 25.1144 43.9855 24.7758 44.0662C22.9447 44.5045 21.4639 46.3109 21.4008 48.2211C21.3635 49.3123 21.3962 50.4058 21.3892 51.4994C21.3892 51.6632 21.4475 51.7139 21.611 51.7093C22.3094 51.6955 23.0077 51.6932 23.7084 51.6862C24.0541 51.6839 24.4021 51.6862 24.7734 51.6862V51.6932ZM25.2406 37.1429C25.2265 39.556 27.1978 41.6069 29.7669 41.6208C32.2941 41.6346 34.347 39.6575 34.3307 37.0968C34.3143 34.6721 32.3104 32.6465 29.8977 32.6465C27.2585 32.6465 25.2429 34.5937 25.2429 37.1429H25.2406ZM15.2092 37.0668C15.3283 34.7805 13.2963 32.6558 10.7482 32.6465C8.22807 32.6373 6.15406 34.6329 6.14239 37.0991C6.13071 39.5814 8.16268 41.5977 10.6758 41.6208C13.1071 41.6439 15.3353 39.7106 15.2092 37.0668Z" fill="black"/>
<path d="M56.7041 6.40896C56.8512 9.44959 54.1372 12.7394 50.3115 12.7394C46.6844 12.7394 43.905 9.75411 43.8676 6.48509C43.8256 2.93692 46.7778 0.0577796 50.2345 0.0324025C54.0789 0.0047185 56.8559 3.24836 56.7041 6.40665V6.40896ZM54.3708 6.38127C54.609 4.19193 52.4556 2.24251 50.2905 2.29557C49.1694 2.32326 48.2142 2.6993 47.4061 3.46061C46.3807 4.42493 46.0911 5.6315 46.2126 6.97187C46.3644 8.6629 48.039 10.4231 50.2205 10.4716C52.6121 10.5223 54.6207 8.43681 54.3731 6.38127H54.3708Z" fill="black"/>
<path d="M44.1734 33.313C44.1734 29.9194 44.1757 26.5258 44.1664 23.1299C44.1664 22.8969 44.1314 22.6408 44.0263 22.4378C43.7086 21.831 43.064 21.6488 42.4357 21.9579C41.0904 22.62 39.7591 23.3052 38.4045 23.9465C37.4913 24.3803 36.5407 24.3987 35.6905 23.815C34.504 23.0007 33.3619 22.124 32.2011 21.2704C31.3603 20.6521 30.5312 20.0177 29.681 19.4156C29.1111 19.0119 28.9313 18.4628 28.9804 17.8122C29.0387 17.0463 29.6507 16.4788 30.4284 16.4165C30.9352 16.3773 31.3486 16.5388 31.741 16.8433C33.1144 17.9091 34.504 18.9565 35.8867 20.0108C36.5453 20.5114 37.0942 20.4907 37.7038 19.9254C38.6871 19.0142 39.654 18.0821 40.6467 17.1824C41.2329 16.6518 41.9359 16.4119 42.7464 16.4142C47.4643 16.4257 52.1845 16.4696 56.9024 16.4003C59.4575 16.3634 61.7628 18.6474 61.6857 21.2935C61.6226 23.4206 61.6717 25.5499 61.6857 27.677C61.6927 28.5375 61.1999 29.1535 60.3708 29.2573C59.6234 29.3495 58.9344 28.8766 58.7685 28.143C58.7335 27.9861 58.7312 27.82 58.7312 27.6585C58.7288 26.1728 58.7312 24.6871 58.7265 23.1991C58.7265 22.7677 58.6611 22.3616 58.2897 22.0594C57.6218 21.5196 56.5941 21.8772 56.468 22.7215C56.4119 23.0976 56.4329 23.4851 56.4329 23.8681C56.4329 29.8133 56.4353 35.7561 56.4353 41.7012C56.4353 42.4003 56.4516 43.1016 56.3956 43.7983C56.2951 45.0464 55.3235 45.7316 54.471 45.9184C53.4037 46.1514 52.334 45.6647 51.7758 44.7465C51.5025 44.2989 51.4745 43.8006 51.4698 43.3023C51.4628 42.0081 51.4698 40.7138 51.4698 39.4196C51.4698 37.5209 51.4721 35.6223 51.4581 33.7236C51.4581 33.4237 51.4091 33.11 51.3133 32.8239C51.1568 32.351 50.7855 32.141 50.274 32.1618C49.7695 32.1825 49.3678 32.4525 49.251 32.9093C49.1739 33.2115 49.1459 33.5345 49.1459 33.8482C49.1459 36.9534 49.1412 40.061 49.1646 43.1662C49.1739 44.4743 48.618 45.3971 47.4666 45.8354C46.0629 46.3706 44.3649 45.3417 44.2178 43.8652C44.1991 43.6737 44.1874 43.4822 44.1874 43.2908C44.1874 39.9641 44.1874 36.6374 44.1874 33.3107C44.1804 33.3107 44.1734 33.3107 44.1664 33.3107L44.1734 33.313Z" fill="#E6E6E6"/>
<path d="M32.9532 14.9288C31.5261 13.9575 30.064 13.8006 28.6019 14.6773C26.9764 15.6508 26.4135 17.1319 26.7475 19.0121C26.5186 19.0121 26.3084 19.0121 26.0982 19.0121C19.7874 19.0121 13.479 19.0121 7.16818 19.0191C6.94396 19.0191 6.89258 18.9499 6.89258 18.7399C6.90192 13.4384 6.90426 8.13924 6.90659 2.83775C6.90659 2.67626 6.90659 2.51477 6.90659 2.33252H32.9532V14.9264V14.9288ZM19.9836 6.06294C19.5282 6.06294 19.0704 6.06294 18.6149 6.06294C16.6927 6.06294 14.7705 6.06294 12.8483 6.06294C12.1874 6.06294 11.6922 6.50819 11.6572 7.11724C11.6198 7.79089 12.1827 8.36533 12.8881 8.36533C17.5476 8.36533 22.2071 8.36533 26.8666 8.36533C26.9063 8.36533 26.9437 8.36994 26.9834 8.36533C27.5112 8.29843 27.9036 8.04696 28.1442 7.56711C28.345 7.16569 28.2236 6.82656 27.9877 6.49435C27.7611 6.17829 27.4435 6.06063 27.0581 6.06063C24.6992 6.06525 22.3402 6.06063 19.9813 6.06063L19.9836 6.06294ZM19.9392 12.7371C22.2094 12.7371 24.482 12.7371 26.7522 12.7371C26.925 12.7371 27.1025 12.7233 27.273 12.691C28.1605 12.5272 28.5062 11.6574 27.9643 10.9469C27.677 10.5708 27.2636 10.4393 26.8129 10.437C22.2211 10.4324 17.6316 10.4278 13.0399 10.4462C12.7386 10.4462 12.4046 10.5639 12.1407 10.7162C11.5965 11.0299 11.4937 11.7036 11.844 12.2203C12.1337 12.6494 12.5681 12.7348 13.0399 12.7348C15.3404 12.7371 17.641 12.7348 19.9416 12.7348L19.9392 12.7371Z" fill="white"/>
<path d="M5.73154 51.6931C5.07057 51.6931 4.45163 51.6931 3.83036 51.6931C3.40295 51.6931 2.97554 51.7 2.54812 51.707C2.40332 51.7093 2.30756 51.6885 2.30989 51.5086C2.32157 50.3297 2.24216 49.1439 2.35193 47.9742C2.5598 45.7595 4.37222 44.1885 6.20333 43.9785C6.67512 43.9255 7.15158 43.9116 7.62571 43.9093C9.70205 43.8978 11.7807 43.9024 13.8571 43.8908C15.0833 43.8839 16.2627 44.0362 17.26 44.8229C18.3624 45.6926 19.0304 46.7977 19.0608 48.2142C19.0841 49.3169 19.0655 50.4197 19.0631 51.5201C19.0631 51.5662 19.0538 51.6124 19.0444 51.6793H15.7069C15.7069 51.4024 15.7069 51.1464 15.7069 50.8903C15.7022 50.152 15.7115 49.4138 15.6905 48.6756C15.6695 47.9789 15.1837 47.499 14.5251 47.4852C13.9435 47.4736 13.4437 47.9189 13.404 48.581C13.3549 49.4207 13.3713 50.2651 13.3619 51.1095C13.3619 51.2894 13.3619 51.4693 13.3619 51.6816H8.01342C8.01342 50.6919 8.01342 49.716 8.01342 48.7402C8.01342 48.108 7.63972 47.6443 7.04415 47.5175C6.49528 47.3998 5.86 47.8035 5.77825 48.3526C5.7292 48.6825 5.73154 49.0216 5.7292 49.3561C5.7222 50.1221 5.7292 50.8857 5.7292 51.6954L5.73154 51.6931Z" fill="#E90000"/>
<path d="M24.7733 51.6929C24.402 51.6929 24.0563 51.6929 23.7083 51.6929C23.01 51.6975 22.3116 51.7021 21.611 51.7159C21.4475 51.7182 21.3867 51.6698 21.3891 51.506C21.3937 50.4125 21.3634 49.3189 21.4007 48.2277C21.4661 46.3175 22.9446 44.5112 24.7757 44.0728C25.112 43.9921 25.4647 43.9275 25.8104 43.9252C28.4496 43.9113 31.0911 43.8929 33.7304 43.9252C35.2975 43.9436 36.5097 44.6796 37.3996 45.9346C37.8317 46.5413 38.0979 47.2219 38.1143 47.9693C38.1423 49.1575 38.14 50.3456 38.1516 51.5337C38.1516 51.5706 38.14 51.6075 38.126 51.6952C37.9671 51.6952 37.806 51.6952 37.6472 51.6952C36.783 51.6975 35.9188 51.6952 35.0546 51.7113C34.8398 51.7159 34.7977 51.6375 34.7977 51.446C34.8047 50.5347 34.8047 49.6258 34.7977 48.7145C34.7931 48.1193 34.3983 47.6487 33.8168 47.5241C33.2539 47.4041 32.6817 47.741 32.5369 48.2969C32.4878 48.4884 32.4691 48.6937 32.4668 48.8945C32.4598 49.8126 32.4645 50.7331 32.4645 51.679H27.1066C27.1066 51.5152 27.1066 51.356 27.1066 51.1968C27.1066 50.3732 27.1066 49.5473 27.1066 48.7237C27.1066 48.0547 26.5904 47.5079 25.9458 47.4918C25.3199 47.478 24.7944 47.9947 24.7804 48.6822C24.7617 49.5819 24.7757 50.484 24.7733 51.386C24.7733 51.4783 24.7733 51.5729 24.7733 51.6998V51.6929Z" fill="#E6E6E6"/>
<path d="M25.2407 37.1453C25.2407 34.596 27.2586 32.6489 29.8955 32.6489C32.3105 32.6489 34.3145 34.6745 34.3285 37.0991C34.3448 39.6599 32.2919 41.6347 29.7647 41.6232C27.1979 41.6093 25.2243 39.5607 25.2384 37.1453H25.2407Z" fill="#E6E6E6"/>
<path d="M15.2114 37.0687C15.3375 39.7125 13.1093 41.6458 10.678 41.6227C8.16487 41.5996 6.1329 39.5833 6.14458 37.101C6.15626 34.6371 8.23027 32.6415 10.7504 32.6485C13.3008 32.6577 15.3305 34.7824 15.2114 37.0687Z" fill="#E90000"/>
<path d="M54.3701 6.38119C54.62 8.43673 52.6114 10.5223 50.2174 10.4715C48.036 10.4254 46.3637 8.66282 46.2095 6.97179C46.0881 5.63142 46.3777 4.42486 47.403 3.46053C48.2111 2.69922 49.1664 2.32318 50.2875 2.29549C52.4526 2.24243 54.606 4.19185 54.3678 6.38119H54.3701Z" fill="#E6E6E6"/>
<path d="M19.9831 6.06299C22.342 6.06299 24.701 6.06299 27.0599 6.06299C27.4453 6.06299 27.7629 6.17834 27.9895 6.4967C28.2254 6.82661 28.3468 7.16804 28.146 7.56946C27.9031 8.05162 27.5107 8.30078 26.9852 8.36768C26.9478 8.3723 26.9081 8.36768 26.8684 8.36768C22.2089 8.36768 17.5494 8.36768 12.8899 8.36768C12.1822 8.36768 11.6216 7.79324 11.659 7.1196C11.6917 6.51055 12.1892 6.0676 12.8501 6.0653C14.7723 6.06299 16.6945 6.0653 18.6167 6.0653C19.0722 6.0653 19.53 6.0653 19.9854 6.0653L19.9831 6.06299Z" fill="black"/>
<path d="M19.941 12.7392C17.6404 12.7392 15.3399 12.7392 13.0393 12.7392C12.5675 12.7392 12.1331 12.6538 11.8435 12.2247C11.4931 11.7079 11.5959 11.0343 12.1401 10.7205C12.404 10.5683 12.738 10.4506 13.0393 10.4506C17.6311 10.4345 22.2205 10.4368 26.8123 10.4414C27.2631 10.4414 27.6765 10.5752 27.9638 10.9512C28.5056 11.6595 28.16 12.5315 27.2724 12.6953C27.1019 12.7276 26.9268 12.7415 26.7516 12.7415C24.4814 12.7438 22.2089 12.7415 19.9387 12.7415L19.941 12.7392Z" fill="black"/>
</g>
<defs>
<clipPath id="clip0_196_1018">
<rect width="64" height="54" fill="white"/>
</clipPath>
</defs>
</svg>
